<svg data-v-423bf9ae="" xmlns="http://www.w3.org/2000/svg" viewBox="0 0 293 90" class="iconLeft"><!----><!----><!----><g data-v-423bf9ae="" id="98be5370-305e-4cef-9ca6-a7aa6c6b69b5" fill="white" transform="matrix(5.769230980844901,0,0,5.769230980844901,121.32144714107169,4.846154243988387)"><path d="M5.13 1.91L5.37 1.91L10.10 12.04L9.02 12.04L7.42 8.70L3.05 8.70L1.47 12.04L0.33 12.04L5.13 1.91ZM6.97 7.73L5.25 4.05L3.50 7.73L6.97 7.73ZM12.18 12.07L11.20 12.07L12.65 1.93L12.81 1.93L16.93 10.25L21.01 1.93L21.17 1.93L22.63 12.07L21.63 12.07L20.64 4.82L17.06 12.07L16.80 12.07L13.17 4.77L12.18 12.07ZM23.78 10.02L23.78 10.02L24.64 9.50L24.64 9.50Q25.55 11.18 26.74 11.18L26.74 11.18L26.74 11.18Q27.25 11.18 27.71 10.94L27.71 10.94L27.71 10.94Q28.16 10.70 28.39 10.30L28.39 10.30L28.39 10.30Q28.62 9.91 28.62 9.45L28.62 9.45L28.62 9.45Q28.62 8.95 28.28 8.46L28.28 8.46L28.28 8.46Q27.80 7.78 26.54 7.08L26.54 7.08L26.54 7.08Q25.27 6.12 24.96 5.69L24.96 5.69L24.96 5.69Q24.42 4.98 24.42 4.14L24.42 4.14L24.42 4.14Q24.42 3.47 24.74 2.93L24.74 2.93L24.74 2.93Q25.05 2.39 25.63 2.07L25.63 2.07L25.63 2.07Q26.21 1.76 26.89 1.76L26.89 1.76L26.89 1.76Q27.60 1.76 28.22 2.12L28.22 2.12L28.22 2.12Q28.84 2.47 29.54 3.42L29.54 3.42L28.71 4.05L28.71 4.05Q28.14 3.29 27.74 3.05L27.74 3.05L27.74 3.05Q27.34 2.81 26.86 2.81L26.86 2.81L26.86 2.81Q26.25 2.81 25.86 3.18L25.86 3.18L25.86 3.18Q25.47 3.55 25.47 4.09L25.47 4.09L25.47 4.09Q25.47 4.42 25.61 4.74L25.61 4.74L25.61 4.74Q25.74 5.05 26.11 5.41L26.11 5.41L26.11 5.41Q26.31 5.61 27.43 6.43L27.43 6.43L27.43 6.43Q28.74 7.40 29.23 8.03L29.23 8.03L29.23 8.03Q29.72 8.67 29.72 9.43L29.72 9.43L29.72 9.43Q29.72 10.53 28.88 11.35L28.88 11.35L28.88 11.35Q28.04 12.16 26.84 12.16L26.84 12.16L26.84 12.16Q25.92 12.16 25.16 11.67L25.16 11.67L25.16 11.67Q24.41 11.18 23.78 10.02Z"></path></g><!----><g data-v-423bf9ae="" id="7b08e343-26ea-445b-a494-cffa8f517b31" transform="matrix(1.032110037561642,0,0,1.032110037561642,0.3873521268992235,-6.205504243456758)" stroke="none" fill="white"><path d="M99.7 76.4L59.9 7.5c-.4-.7-1.2-1.1-2-1.1H42c-.8 0-1.6.4-2 1.1L.3 76.4c-.4.7-.4 1.6 0 2.3l8 13.8c.4.7 1.2 1.1 2 1.1h79.5c.8 0 1.6-.4 2-1.1l8-13.8c.3-.7.3-1.6-.1-2.3zM43.4 11H54L24.2 62.6c-.4.7-.4 1.6 0 2.3.4.7 1.2 1.1 2 1.1h30.5l5.3 9.2H6.3L43.4 11zM50 54.6l4 6.9h-8l4-6.9zM6.3 79.8h59.6c.8 0 1.6-.4 2-1.1s.4-1.6 0-2.3L52.7 50l5.3-9.2L85.8 89H11.6l-5.3-9.2zm83.5 6.9L59.9 35.1c-.4-.7-1.2-1.1-2-1.1s-1.6.4-2 1.1L40.7 61.5H30.1L58 13.3l37.1 64.3-5.3 9.1z"></path></g><!----></svg>