<svg data-v-fde0c5aa="" xmlns="http://www.w3.org/2000/svg" viewBox="0 0 300 300" class="icon"><!----><defs data-v-fde0c5aa=""><!----></defs><rect data-v-fde0c5aa="" fill="#E6F2FE" x="0" y="0" width="300px" height="300px" class="logo-background-square"></rect><!----><defs data-v-fde0c5aa=""><linearGradient data-v-fde0c5aa="" gradientTransform="rotate(25)" id="f002a2fd-3032-4d41-aec1-6b1c0743d9f6" x1="0%" y1="0%" x2="100%" y2="0%"><stop data-v-fde0c5aa="" offset="0%" stop-color="#51A4FB" stop-opacity="1"></stop><stop data-v-fde0c5aa="" offset="100%" stop-color="#51A4FB" stop-opacity="1"></stop></linearGradient></defs><g data-v-fde0c5aa="" id="e9d6f9ed-b40c-4ca6-be7a-8463b48e85b1" fill="url(#f002a2fd-3032-4d41-aec1-6b1c0743d9f6)" stroke="none" transform="matrix(2.1996954004553353,0,0,2.1996954004553353,40.000000000000014,40.015224732750724)"><path d="M99.7 76.4L59.9 7.5c-.4-.7-1.2-1.1-2-1.1H42c-.8 0-1.6.4-2 1.1L.3 76.4c-.4.7-.4 1.6 0 2.3l8 13.8c.4.7 1.2 1.1 2 1.1h79.5c.8 0 1.6-.4 2-1.1l8-13.8c.3-.7.3-1.6-.1-2.3zM43.4 11H54L24.2 62.6c-.4.7-.4 1.6 0 2.3.4.7 1.2 1.1 2 1.1h30.5l5.3 9.2H6.3L43.4 11zM50 54.6l4 6.9h-8l4-6.9zM6.3 79.8h59.6c.8 0 1.6-.4 2-1.1s.4-1.6 0-2.3L52.7 50l5.3-9.2L85.8 89H11.6l-5.3-9.2zm83.5 6.9L59.9 35.1c-.4-.7-1.2-1.1-2-1.1s-1.6.4-2 1.1L40.7 61.5H30.1L58 13.3l37.1 64.3-5.3 9.1z"></path></g><!----></svg>